<?xml version="1.0" encoding="utf-8"?>
<!-- Generator: Adobe Illustrator 23.0.2, SVG Export Plug-In . SVG Version: 6.00 Build 0)  -->
<svg version="1.1" id="Laag_1" xmlns="http://www.w3.org/2000/svg" xmlns:xlink="http://www.w3.org/1999/xlink" x="0px" y="0px"
	 width="356px" height="70px" viewBox="0 0 356 70" style="enable-background:new 0 0 356 70;" xml:space="preserve">
<style type="text/css">
	.st0{fill:#1D1E1C;}
</style>
<path class="st0" d="M32.4,7C29.5,3.2,25.1,0.5,20.1,0V7c4.9,0.9,8.7,5.1,8.8,10.2l0,36.9h7l0-36.6h0c0,0,0,0,0,0
	c0-5.2,3.8-9.6,8.8-10.5V0C39.7,0.5,35.3,3.2,32.4,7z"/>
<path class="st0" d="M0.6,17.2L0.6,17.2l0,36.9h7l0-36.6h0c0-5.2,3.8-9.6,8.8-10.5V0C7.6,0.9,0.7,8.2,0.6,17.2z"/>
<path class="st0" d="M64.3,17.5v-0.3h0c-0.2-9-7-16.3-15.8-17.2V7c5,0.9,8.8,5.2,8.8,10.5l0,36.6h7L64.3,17.5L64.3,17.5
	C64.3,17.5,64.3,17.5,64.3,17.5z"/>
<path class="st0" d="M211.2,27.1c0,14.3,11.1,26.1,25.2,27.1v-7c-10.2-1-18.2-9.6-18.2-20s8-19.1,18.2-20V0
	C222.4,1,211.2,12.7,211.2,27.1z"/>
<path class="st0" d="M240.2,0v7c10.2,1,18.2,9.6,18.2,20s-8,19.1-18.2,20v7c14.1-1,25.2-12.7,25.2-27.1S254.2,1,240.2,0z"/>
<path class="st0" d="M123.4,30.6L123.4,30.6L123.4,30.6l0,23.6h7l0-23.5c0-5.3,3.8-9.7,8.8-10.5V13
	C130.4,13.9,123.4,21.4,123.4,30.6z"/>
<path class="st0" d="M143,13V20c5,0.9,8.8,5.3,8.8,10.5h0l0,23.6h7l0-23.5h0C158.8,21.4,151.9,13.9,143,13z"/>
<path class="st0" d="M271.9,30.6L271.9,30.6L271.9,30.6l0,23.6h7l0-23.5c0-5.3,3.8-9.7,8.8-10.5V13
	C278.9,13.9,271.9,21.4,271.9,30.6z"/>
<path class="st0" d="M291.5,13V20c5,0.9,8.8,5.3,8.8,10.5h0l0,23.6h7l0-23.5h0C307.4,21.4,300.4,13.9,291.5,13z"/>
<path class="st0" d="M185.3,54.1L185.3,54.1l6.9,0v-7h-6.9v0c-5.8,0-10.6-4.8-10.6-10.6l0-23.5h-7l0,23.5h0c0,0,0,0,0,0v0.4h0
	C167.9,46.4,175.7,54.1,185.3,54.1z"/>
<path class="st0" d="M195.9,13l0,17h0V34l0,13.1h0v7h0v0.2c0,4.1-3.3,7.4-7.3,7.4l-17.1,0v7l17.1,0v0c0,0,0,0,0,0h0.1v0
	c7.9,0,14.2-6.4,14.3-14.3h0v-0.1l0-41.3H195.9z"/>
<path class="st0" d="M113.9,33.5c0-11.4-9.3-20.6-20.6-20.6c-10.7,0-19.6,8.2-20.5,18.7h7.1c0.9-6.6,6.6-11.7,13.5-11.7
	c7.5,0,13.6,6.1,13.6,13.6h0l0,13.6h0v7l6.8,0v0h0.2L113.9,33.5L113.9,33.5z"/>
<path class="st0" d="M79.8,35.4h-7c1,10.5,9.7,18.7,20.4,18.7v0h0.1l9.9,0v-7l-9.9,0C86.5,47.1,80.8,42,79.8,35.4z"/>
<path class="st0" d="M334.9,47.1L334.9,47.1c-4.8,0-9.1-2.6-11.5-6.4h-7.8c2.9,7.8,10.4,13.3,19.2,13.3v0l10.3,0l0-7L334.9,47.1z"/>
<path class="st0" d="M355.1,29.4c0,0,0-0.1,0-0.1c0-0.2-0.1-0.3-0.1-0.5c-0.5-2-1.2-3.9-2.2-5.6c-0.2-0.4-0.5-0.8-0.7-1.2
	c0,0,0,0,0,0c-0.8-1.2-1.7-2.3-2.7-3.3c-0.3-0.3-0.6-0.5-0.9-0.8c-3.2-2.7-7.2-4.5-11.6-4.9V20c5.5,0.8,9.9,4.8,11.3,10l-26.3,0
	c1.4-5.2,5.8-9.2,11.3-10v-7c-10.5,1-18.7,9.7-18.7,20.5h0c0,0,0,0,0,0s0,0,0,0h0c0,1.2,0.1,2.4,0.3,3.5h7.2c0,0,0,0,0,0l29.4,0l0,0
	h4.7C356,37,356.2,33.6,355.1,29.4z"/>
</svg>
