<svg width="343" height="59" viewBox="0 0 343 59" fill="none" xmlns="http://www.w3.org/2000/svg">
<path d="M327.85 37.2449C327.469 26.0074 318.145 17.0154 306.703 17.0154C295.261 17.0154 285.536 26.4019 285.536 37.9777C285.536 49.5536 295.014 58.9496 306.703 58.9496C307.071 58.9496 307.432 58.9403 307.793 58.9216C308.486 58.8837 309.169 58.8181 309.843 58.7147C310.089 58.6866 310.336 58.6395 310.582 58.5927C318.579 57.0515 321.209 51.0382 321.209 51.0382V53.2368H321.219V57.9725H327.86V37.6301C327.86 37.5079 327.86 37.3764 327.85 37.2544V37.2449ZM306.703 52.3724C298.696 52.3724 292.177 45.9175 292.177 37.9777C292.177 30.0382 298.696 23.5926 306.703 23.5926C314.71 23.5926 321.029 29.8501 321.219 37.6113C321.219 37.7335 321.219 37.8555 321.219 37.9777C321.219 38.1 321.219 38.2315 321.219 38.3537C321.019 46.1241 314.585 52.3724 306.703 52.3724Z" fill="white"/>
<path d="M82.5789 31.1554V57.9623H75.1316V32.5931C75.1316 29.2668 74.7522 27.4722 73.7654 26.185C72.6461 24.6817 70.4355 23.7419 67.9878 23.7419C65.1417 23.7419 62.6561 24.8319 60.8249 26.8896C59.013 28.844 58.3772 30.6199 58.3772 33.6924V57.9623H50.9299V17.9727H58.3772V22.5862C61.622 18.668 64.9519 17.0427 69.6197 17.0427C73.2721 17.0427 76.64 18.2265 79.0877 20.3783C81.6682 22.8494 82.5789 25.6683 82.5789 31.1554Z" fill="white"/>
<path d="M99.3426 17.9709H91.8953V57.9605H99.3426V17.9709Z" fill="white"/>
<path d="M100.282 7.52209C100.282 10.059 98.2329 12.051 95.6144 12.051C92.9959 12.051 91.0417 10.0684 91.0417 7.43753C91.0417 4.80666 93.0435 2.8147 95.6998 2.8147C98.3563 2.8147 100.282 4.88183 100.282 7.52209Z" fill="white"/>
<path d="M116.789 24.5873V49.5242C116.856 51.1214 117.074 51.4315 119.313 51.4315H122.776V57.9619H116.23C111.334 57.8772 109.342 55.9698 109.342 51.3939V24.5873H103.868V17.9725H109.342V5.69189H116.789V17.9725H122.776V24.5873H116.789Z" fill="white"/>
<path d="M145.222 17.0427C133.059 17.0427 124.568 25.6305 124.568 37.9299C124.568 50.2292 132.955 58.8923 144.966 58.8923C156.976 58.8923 165.629 49.7595 165.629 38.099C165.629 26.4387 157.043 17.0427 145.222 17.0427ZM145.136 52.0333C137.395 52.0333 132.186 46.3957 132.186 38.0146C132.186 29.6333 137.423 23.9112 145.222 23.9112C153.02 23.9112 158.001 29.5769 158.001 38.0146C158.001 46.452 152.717 52.0333 145.136 52.0333Z" fill="white"/>
<path d="M226.175 32.5084V57.9623H218.729V34.0306C218.729 29.4171 218.578 28.3366 217.685 26.8144C216.546 24.8976 214.148 23.7419 211.252 23.7419C205.826 23.7419 202.828 27.397 202.828 34.0306V57.9623H195.382V34.1152C195.382 30.4037 195.057 28.5151 194.157 26.8896C193.142 24.8883 190.961 23.7419 188.16 23.7419C182.725 23.7419 179.48 27.6225 179.48 34.1152V57.9623H172.033V17.9727H179.48V22.3891C182.337 18.6588 185.618 17.0427 190.21 17.0427C195.448 17.0427 198.958 19.185 200.903 23.5823C203.835 19.0157 207.59 17.0427 213.301 17.0427C217.951 17.0427 221.537 18.5461 223.691 21.3837C225.663 23.9676 226.175 26.2506 226.175 32.5084Z" fill="white"/>
<path d="M243.89 7.52209C243.89 10.059 241.84 12.051 239.22 12.051C236.602 12.051 234.638 10.0684 234.638 7.43753C234.638 4.80666 236.651 2.8147 239.305 2.8147C241.962 2.8147 243.89 4.88183 243.89 7.52209Z" fill="white"/>
<path d="M242.95 17.9709H235.492V57.9605H242.95V17.9709Z" fill="white"/>
<path d="M279.703 47.5889L284.361 52.7003L284.009 53.0199C279.408 57.1352 274.968 58.8923 269.152 58.8923C257.683 58.8923 249.354 50.154 249.354 38.099C249.354 26.044 257.634 17.0427 269.493 17.0427C275.319 17.0427 279.986 18.9406 284.2 23.0278L284.541 23.3567L279.694 28.158L279.352 27.8574C276.466 25.236 273.204 23.9112 269.664 23.9112C262.189 23.9112 256.971 29.6428 256.971 37.8453C256.971 46.048 262.16 52.0333 269.579 52.0333C273.355 52.0333 276.278 50.8025 279.352 47.9178L279.703 47.5889Z" fill="white"/>
<path d="M343 0.525391H335.552V57.9632H343V0.525391Z" fill="white"/>
<path d="M42.9511 37.2449C42.5718 26.0074 33.2459 17.0154 21.8044 17.0154C10.3629 17.0154 0.638672 26.4019 0.638672 37.9777C0.638672 49.5536 10.1163 58.9496 21.8044 58.9496C22.1743 58.9496 22.5348 58.9403 22.8954 58.9216C23.588 58.8837 24.2709 58.8181 24.9445 58.7147C25.1911 58.6866 25.438 58.6395 25.6847 58.5927C33.6821 57.0515 36.3101 51.0382 36.3101 51.0382V53.2368H36.3196V57.9725H42.9606V37.6301C42.9606 37.5079 42.9606 37.3764 42.9511 37.2544V37.2449ZM21.8044 52.3724C13.7972 52.3724 7.27967 45.9175 7.27967 37.9777C7.27967 30.0382 13.7972 23.5926 21.8044 23.5926C29.8114 23.5926 36.1298 29.8501 36.3196 37.6113C36.3196 37.7335 36.3196 37.8555 36.3196 37.9777C36.3196 38.1 36.3196 38.2315 36.3196 38.3537C36.1203 46.1241 29.6882 52.3724 21.8044 52.3724Z" fill="white"/>
</svg>
