<svg width="274" height="53" viewBox="0 0 274 53" fill="none" xmlns="http://www.w3.org/2000/svg">
<path d="M261.992 29.4078C261.686 20.5645 254.196 13.4883 245.004 13.4883C235.812 13.4883 228 20.8749 228 29.9845C228 39.0941 235.614 46.4883 245.004 46.4883C245.3 46.4883 245.59 46.481 245.88 46.4662C246.437 46.4364 246.985 46.3848 247.526 46.3034C247.724 46.2813 247.922 46.2443 248.12 46.2074C254.545 44.9946 256.657 40.2624 256.657 40.2624V41.9926H256.665V45.7194H262V29.711C262 29.6148 262 29.5113 261.992 29.4153V29.4078ZM245.004 41.3124C238.572 41.3124 233.335 36.2327 233.335 29.9845C233.335 23.7366 238.572 18.6642 245.004 18.6642C251.436 18.6642 256.512 23.5885 256.665 29.6962C256.665 29.7924 256.665 29.8883 256.665 29.9845C256.665 30.0807 256.665 30.1842 256.665 30.2804C256.504 36.3953 251.336 41.3124 245.004 41.3124Z" fill="#4F4262"/>
<path d="M65.5802 24.5151V45.9687H59.62V25.6657C59.62 23.0037 59.3164 21.5674 58.5266 20.5373C57.6308 19.3342 55.8616 18.5821 53.9027 18.5821C51.6249 18.5821 49.6357 19.4544 48.1701 21.1012C46.72 22.6653 46.2112 24.0865 46.2112 26.5455V45.9687H40.251V13.965H46.2112V17.6572C48.808 14.5215 51.473 13.2207 55.2087 13.2207C58.1318 13.2207 60.8272 14.1681 62.7862 15.8902C64.8513 17.8678 65.5802 20.1237 65.5802 24.5151Z" fill="#4F4262"/>
<path d="M78.9934 13.9629H73.0332V45.9666H78.9934V13.9629Z" fill="#4F4262"/>
<path d="M79.7454 5.60132C79.7454 7.63162 78.1053 9.2258 76.0097 9.2258C73.914 9.2258 72.3501 7.63914 72.3501 5.53365C72.3501 3.42816 73.9521 1.83398 76.078 1.83398C78.2041 1.83398 79.7454 3.48831 79.7454 5.60132Z" fill="#4F4262"/>
<path d="M92.9575 19.2607V39.2177C93.0106 40.496 93.1853 40.7442 94.9771 40.7442H97.7485V45.9705H92.5095C88.5917 45.9027 86.9972 44.3762 86.9972 40.7141V19.2607H82.6162V13.9669H86.9972V4.13867H92.9575V13.9669H97.7485V19.2607H92.9575Z" fill="#4F4262"/>
<path d="M115.713 13.2207C105.98 13.2207 99.1841 20.0935 99.1841 29.9368C99.1841 39.7799 105.896 46.713 115.508 46.713C125.121 46.713 132.045 39.4041 132.045 30.0721C132.045 20.7403 125.174 13.2207 115.713 13.2207ZM115.645 41.2238C109.449 41.2238 105.281 36.712 105.281 30.0045C105.281 23.2969 109.472 18.7176 115.713 18.7176C121.955 18.7176 125.941 23.2518 125.941 30.0045C125.941 36.7571 121.712 41.2238 115.645 41.2238Z" fill="#4F4262"/>
<path d="M180.501 25.598V45.9687H174.542V26.8161C174.542 23.124 174.421 22.2592 173.706 21.041C172.795 19.507 170.875 18.5821 168.558 18.5821C164.215 18.5821 161.816 21.5073 161.816 26.8161V45.9687H155.857V26.8839C155.857 23.9135 155.597 22.4021 154.876 21.1012C154.064 19.4995 152.319 18.5821 150.077 18.5821C145.727 18.5821 143.13 21.6877 143.13 26.8839V45.9687H137.17V13.965H143.13V17.4994C145.417 14.514 148.043 13.2207 151.717 13.2207C155.909 13.2207 158.719 14.9352 160.275 18.4544C162.622 14.7997 165.627 13.2207 170.198 13.2207C173.919 13.2207 176.789 14.4238 178.513 16.6948C180.091 18.7627 180.501 20.5898 180.501 25.598Z" fill="#4F4262"/>
<path d="M194.68 5.60132C194.68 7.63162 193.04 9.2258 190.943 9.2258C188.848 9.2258 187.276 7.63914 187.276 5.53365C187.276 3.42816 188.887 1.83398 191.012 1.83398C193.138 1.83398 194.68 3.48831 194.68 5.60132Z" fill="#4F4262"/>
<path d="M193.927 13.9629H187.958V45.9666H193.927V13.9629Z" fill="#4F4262"/>
<path d="M223.342 37.6669L227.069 41.7576L226.788 42.0134C223.106 45.3068 219.552 46.713 214.897 46.713C205.719 46.713 199.053 39.7198 199.053 30.0721C199.053 20.4244 205.68 13.2207 215.171 13.2207C219.833 13.2207 223.568 14.7395 226.94 18.0106L227.214 18.2738L223.334 22.1163L223.061 21.8757C220.751 19.7778 218.14 18.7176 215.307 18.7176C209.325 18.7176 205.148 23.3046 205.148 29.869C205.148 36.4337 209.301 41.2238 215.239 41.2238C218.261 41.2238 220.601 40.2387 223.061 37.9301L223.342 37.6669Z" fill="#4F4262"/>
<path d="M274 0H268.039V45.9676H274V0Z" fill="#4F4262"/>
<path d="M33.9924 29.4078C33.6876 20.5645 26.1955 13.4883 17.0038 13.4883C7.81211 13.4883 0 20.8749 0 29.9845C0 39.0941 7.61396 46.4883 17.0038 46.4883C17.3009 46.4883 17.5906 46.481 17.8803 46.4662C18.4367 46.4364 18.9853 46.3848 19.5265 46.3034C19.7246 46.2813 19.9229 46.2443 20.1211 46.2074C26.546 44.9946 28.6572 40.2624 28.6572 40.2624V41.9926H28.6649V45.7194H34V29.711C34 29.6148 34 29.5113 33.9924 29.4153V29.4078ZM17.0038 41.3124C10.5711 41.3124 5.33515 36.2327 5.33515 29.9845C5.33515 23.7366 10.5711 18.6642 17.0038 18.6642C23.4363 18.6642 28.5124 23.5885 28.6649 29.6962C28.6649 29.7924 28.6649 29.8883 28.6649 29.9845C28.6649 30.0807 28.6649 30.1842 28.6649 30.2804C28.5047 36.3953 23.3374 41.3124 17.0038 41.3124Z" fill="#4F4262"/>
</svg>
