<svg width="186" height="40" viewBox="0 0 186 40" fill="none" xmlns="http://www.w3.org/2000/svg">
<path d="M177.767 20.0785C177.561 13.9732 172.495 9.08789 166.279 9.08789C160.062 9.08789 154.779 14.1875 154.779 20.4766C154.779 26.7658 159.929 31.8706 166.279 31.8706C166.479 31.8706 166.675 31.8655 166.871 31.8553C167.248 31.8348 167.619 31.7991 167.984 31.7429C168.118 31.7277 168.252 31.7021 168.386 31.6767C172.731 30.8393 174.16 27.5723 174.16 27.5723V28.7668H174.165V31.3397H177.773V20.2878C177.773 20.2214 177.773 20.1499 177.767 20.0836V20.0785ZM166.279 28.2972C161.929 28.2972 158.387 24.7903 158.387 20.4766C158.387 16.1631 161.929 12.6612 166.279 12.6612C170.629 12.6612 174.062 16.061 174.165 20.2776C174.165 20.344 174.165 20.4102 174.165 20.4766C174.165 20.5431 174.165 20.6145 174.165 20.6809C174.056 24.9025 170.561 28.2972 166.279 28.2972Z" fill="#4F4262"/>
<path d="M44.5175 16.7709V31.3349H40.4716V17.552C40.4716 15.7448 40.2654 14.7698 39.7293 14.0705C39.1212 13.2537 37.9202 12.7431 36.5905 12.7431C35.0442 12.7431 33.6939 13.3354 32.699 14.4533C31.7146 15.5151 31.3692 16.4799 31.3692 18.1492V31.3349H27.3232V9.60879H31.3692V12.1153C33.132 9.98655 34.9411 9.10352 37.477 9.10352C39.4613 9.10352 41.2911 9.74664 42.6209 10.9157C44.0227 12.2583 44.5175 13.7897 44.5175 16.7709Z" fill="#4F4262"/>
<path d="M53.6236 9.60742H49.5776V31.3336H53.6236V9.60742Z" fill="#4F4262"/>
<path d="M54.1334 3.93055C54.1334 5.30885 53.0201 6.39107 51.5975 6.39107C50.1749 6.39107 49.1133 5.31395 49.1133 3.88461C49.1133 2.45527 50.2008 1.37305 51.6439 1.37305C53.0872 1.37305 54.1334 2.49611 54.1334 3.93055Z" fill="#4F4262"/>
<path d="M63.102 13.2033V26.7514C63.138 27.6192 63.2567 27.7876 64.473 27.7876H66.3543V31.3355H62.7979C60.1384 31.2895 59.056 30.2533 59.056 27.7672V13.2033H56.082V9.60952H59.056V2.9375H63.102V9.60952H66.3543V13.2033H63.102Z" fill="#4F4262"/>
<path d="M78.5502 9.10352C71.9426 9.10352 67.3296 13.7692 67.3296 20.4514C67.3296 27.1336 71.8859 31.8402 78.411 31.8402C84.9362 31.8402 89.6368 26.8784 89.6368 20.5433C89.6368 14.2083 84.9723 9.10352 78.5502 9.10352ZM78.5038 28.1138C74.298 28.1138 71.4683 25.0508 71.4683 20.4974C71.4683 15.9439 74.3135 12.8351 78.5502 12.8351C82.7869 12.8351 85.4929 15.9133 85.4929 20.4974C85.4929 25.0815 82.622 28.1138 78.5038 28.1138Z" fill="#4F4262"/>
<path d="M122.53 17.506V31.3349H118.485V18.3329C118.485 15.8265 118.403 15.2394 117.918 14.4124C117.299 13.371 115.996 12.7431 114.422 12.7431C111.475 12.7431 109.846 14.729 109.846 18.3329V31.3349H105.801V18.3789C105.801 16.3625 105.624 15.3364 105.135 14.4533C104.584 13.366 103.399 12.7431 101.877 12.7431C98.9242 12.7431 97.1614 14.8514 97.1614 18.3789V31.3349H93.1157V9.60879H97.1614V12.0082C98.7135 9.98151 100.496 9.10352 102.991 9.10352C105.836 9.10352 107.744 10.2674 108.8 12.6565C110.393 10.1754 112.433 9.10352 115.536 9.10352C118.062 9.10352 120.01 9.92027 121.181 11.4619C122.252 12.8657 122.53 14.1061 122.53 17.506Z" fill="#4F4262"/>
<path d="M132.155 3.93055C132.155 5.30885 131.042 6.39107 129.618 6.39107C128.196 6.39107 127.129 5.31395 127.129 3.88461C127.129 2.45527 128.222 1.37305 129.664 1.37305C131.108 1.37305 132.155 2.49611 132.155 3.93055Z" fill="#4F4262"/>
<path d="M131.644 9.60742H127.592V31.3336H131.644V9.60742Z" fill="#4F4262"/>
<path d="M151.612 25.6991L154.142 28.4761L153.951 28.6498C151.451 30.8856 149.039 31.8402 145.879 31.8402C139.649 31.8402 135.124 27.0927 135.124 20.5433C135.124 13.9939 139.622 9.10352 146.065 9.10352C149.23 9.10352 151.766 10.1346 154.055 12.3552L154.24 12.5338L151.606 15.1424L151.421 14.9791C149.853 13.5549 148.081 12.8351 146.158 12.8351C142.097 12.8351 139.261 15.9491 139.261 20.4055C139.261 24.862 142.081 28.1138 146.111 28.1138C148.163 28.1138 149.751 27.4451 151.421 25.8778L151.612 25.6991Z" fill="#4F4262"/>
<path d="M186 0.128906H181.954V31.3346H186V0.128906Z" fill="#4F4262"/>
<path d="M22.9876 20.0785C22.7815 13.9732 17.7149 9.08789 11.499 9.08789C5.283 9.08789 0 14.1875 0 20.4766C0 26.7658 5.149 31.8706 11.499 31.8706C11.6999 31.8706 11.8958 31.8655 12.0917 31.8553C12.468 31.8348 12.839 31.7991 13.2049 31.7429C13.3389 31.7277 13.473 31.7021 13.607 31.6767C17.9519 30.8393 19.3796 27.5723 19.3796 27.5723V28.7668H19.3848V31.3397H22.9927V20.2878C22.9927 20.2214 22.9927 20.1499 22.9876 20.0836V20.0785ZM11.499 28.2972C7.14879 28.2972 3.60793 24.7903 3.60793 20.4766C3.60793 16.1631 7.14879 12.6612 11.499 12.6612C15.849 12.6612 19.2817 16.061 19.3848 20.2776C19.3848 20.344 19.3848 20.4102 19.3848 20.4766C19.3848 20.5431 19.3848 20.6145 19.3848 20.6809C19.2765 24.9025 15.7821 28.2972 11.499 28.2972Z" fill="#4F4262"/>
</svg>
