<svg width="168" height="73" viewBox="0 0 168 73" fill="none" xmlns="http://www.w3.org/2000/svg">
<g id="Layer 1">
<g id="Group">
<g id="Group_2">
<path id="Vector" d="M45.1246 72.5991H0V27.9087H45.1246V72.5991ZM0.583306 72.0215H44.5413V28.4864H0.583306V72.0215Z" fill="#1E5E7B"/>
<path id="Vector_2" d="M44.8329 72.5028C20.1668 72.5028 0.0972176 52.6263 0.0972176 28.1975H0.486088C0.486088 52.4145 20.3807 72.1177 44.8329 72.1177V72.5028Z" fill="#1E5E7B"/>
</g>
<g id="Group_3">
<path id="Vector_3" d="M28.1581 28.4864H0V0.599121H28.1581V28.4864ZM0.583306 27.9087H27.5748V1.17682H0.583306V27.9087Z" fill="#1E5E7B"/>
<path id="Vector_4" d="M0.583306 28.1975H0C0 12.981 12.4983 0.599121 27.8665 0.599121V1.17682C12.8211 1.17682 0.583306 13.2969 0.583306 28.1975Z" fill="#1E5E7B"/>
</g>
<g id="Group_4">
<path id="Vector_5" d="M45.1246 17.98H27.5748V0.599121H45.1246V17.98ZM28.1581 17.4023H44.5413V1.17682H28.1581V17.4023Z" fill="#1E5E7B"/>
<path id="Vector_6" d="M45.1246 17.6912H44.5413C44.5413 8.58286 37.0594 1.17682 27.8665 1.17682V0.599121C37.3822 0.599121 45.1246 8.26706 45.1246 17.6912Z" fill="#1E5E7B"/>
</g>
<g id="Group_5">
<path id="Vector_7" d="M45.1246 28.4864H33.9368V17.4062H45.1246V28.4864ZM34.5201 27.9087H44.5413V17.9839H34.5201V27.9087Z" fill="#1E5E7B"/>
<path id="Vector_8" d="M34.2284 28.4863V27.9087C39.9137 27.9087 44.5413 23.3256 44.5413 17.695H45.1246C45.1246 23.6453 40.2365 28.4863 34.2284 28.4863Z" fill="#1E5E7B"/>
</g>
<path id="Vector_9" d="M34.5201 28.4864H27.5748V21.608H34.5201V28.4864ZM28.1581 27.9087H33.9368V22.1857H28.1581V27.9087Z" fill="#1E5E7B"/>
<g id="Group_6">
<path id="Vector_10" d="M32.4007 22.1818H27.5748V17.4023H32.4007V22.1818ZM28.1581 21.6041H31.8174V17.98H28.1581V21.6041Z" fill="#1E5E7B"/>
<path id="Vector_11" d="M28.1581 21.893H27.5748C27.5748 19.4166 29.6086 17.4023 32.1091 17.4023V17.98C29.9314 17.98 28.1581 19.7362 28.1581 21.893Z" fill="#1E5E7B"/>
</g>
<g id="Group_7">
<path id="Vector_12" d="M34.5201 22.1818H31.8174V19.5051H34.5201V22.1818ZM32.4007 21.6041H33.9368V20.0828H32.4007V21.6041Z" fill="#1E5E7B"/>
<path id="Vector_13" d="M32.1091 22.1817V21.6041C33.1162 21.6041 33.9368 20.7914 33.9368 19.7939H34.5201C34.5201 21.1111 33.439 22.1817 32.1091 22.1817Z" fill="#1E5E7B"/>
</g>
<g id="Group_8">
<path id="Vector_14" d="M34.5201 20.0828H31.8174V17.4062H34.5201V20.0828ZM32.4007 19.5051H33.9368V17.9839H32.4007V19.5051Z" fill="#1E5E7B"/>
<path id="Vector_15" d="M34.5201 19.794H33.9368C33.9368 18.7965 33.1162 17.9839 32.1091 17.9839V17.4062C33.439 17.4062 34.5201 18.4769 34.5201 19.794Z" fill="#1E5E7B"/>
</g>
</g>
<g id="Group_9">
<path id="Vector_16" d="M61.2549 17.0018V27.9896H58.2023V17.5911C58.2023 16.2277 58.0468 15.4921 57.6423 14.9645C57.1835 14.3483 56.2774 13.9631 55.2741 13.9631C54.1075 13.9631 53.0887 14.4099 52.3381 15.2533C51.5954 16.0544 51.3348 16.7823 51.3348 18.0417V27.9896H48.2822V11.5984H51.3348V13.4894C52.6648 11.8834 54.0297 11.2172 55.943 11.2172C57.4401 11.2172 58.8206 11.7024 59.8239 12.5844C60.8816 13.5973 61.2549 14.7527 61.2549 17.0018Z" fill="#1E5E7B"/>
<g id="Group_10">
<path id="Vector_17" d="M68.1263 11.5984H65.0737V27.9896H68.1263V11.5984Z" fill="#1E5E7B"/>
<path id="Vector_18" d="M68.5113 7.31579C68.5113 8.35564 67.6713 9.17212 66.598 9.17212C65.5247 9.17212 64.7237 8.35949 64.7237 7.28113C64.7237 6.20277 65.5442 5.38629 66.633 5.38629C67.7219 5.38629 68.5113 6.23358 68.5113 7.31579Z" fill="#1E5E7B"/>
</g>
<path id="Vector_19" d="M75.2776 14.3098V24.5311C75.3048 25.1858 75.3943 25.3129 76.312 25.3129H77.7314V27.9896H75.0482C73.0416 27.9549 72.225 27.1731 72.225 25.2975V14.3098H69.9812V11.5985H72.225V6.56482H75.2776V11.5985H77.7314V14.3098H75.2776Z" fill="#1E5E7B"/>
<path id="Vector_20" d="M86.9321 11.2172C81.9468 11.2172 78.4664 14.7372 78.4664 19.7786C78.4664 24.8199 81.904 28.3708 86.8271 28.3708C91.7502 28.3708 95.2967 24.6274 95.2967 19.8479C95.2967 15.0685 91.7774 11.2172 86.9321 11.2172ZM86.8971 25.5594C83.7239 25.5594 81.589 23.2486 81.589 19.8133C81.589 16.3779 83.7356 14.0325 86.9321 14.0325C90.1286 14.0325 92.1702 16.3548 92.1702 19.8133C92.1702 23.2717 90.0042 25.5594 86.8971 25.5594Z" fill="#1E5E7B"/>
<path id="Vector_21" d="M120.114 17.5564V27.9896H117.062V18.1803C117.062 16.2893 117 15.8464 116.634 15.2225C116.167 14.4368 115.184 13.9631 113.997 13.9631C111.773 13.9631 110.544 15.4613 110.544 18.1803V27.9896H107.492V18.215C107.492 16.6937 107.359 15.9196 106.99 15.2533C106.574 14.433 105.68 13.9631 104.532 13.9631C102.304 13.9631 100.974 15.5537 100.974 18.215V27.9896H97.9216V11.5984H100.974V13.4086C102.145 11.8796 103.49 11.2172 105.372 11.2172C107.519 11.2172 108.958 12.0953 109.755 13.8977C110.957 12.0259 112.496 11.2172 114.837 11.2172C116.743 11.2172 118.213 11.8334 119.096 12.9965C119.904 14.0556 120.114 14.9914 120.114 17.5564Z" fill="#1E5E7B"/>
<g id="Group_11">
<path id="Vector_22" d="M127.375 7.31579C127.375 8.35564 126.535 9.17212 125.461 9.17212C124.388 9.17212 123.583 8.35949 123.583 7.28113C123.583 6.20277 124.408 5.38629 125.496 5.38629C126.585 5.38629 127.375 6.23358 127.375 7.31579Z" fill="#1E5E7B"/>
<path id="Vector_23" d="M126.99 11.5984H123.933V27.9896H126.99V11.5984Z" fill="#1E5E7B"/>
</g>
<path id="Vector_24" d="M142.055 23.7377L143.964 25.8328L143.82 25.9638C141.934 27.6506 140.114 28.3708 137.73 28.3708C133.029 28.3708 129.615 24.7891 129.615 19.8479C129.615 14.9067 133.009 11.2172 137.87 11.2172C140.258 11.2172 142.171 11.9951 143.898 13.6704L144.038 13.8052L142.051 15.7732L141.911 15.65C140.728 14.5755 139.391 14.0325 137.94 14.0325C134.876 14.0325 132.737 16.3818 132.737 19.7439C132.737 23.1061 134.864 25.5594 137.905 25.5594C139.453 25.5594 140.651 25.0549 141.911 23.8725L142.055 23.7377Z" fill="#1E5E7B"/>
<path id="Vector_25" d="M168 4.44659H164.947V27.9896H168V4.44659Z" fill="#1E5E7B"/>
</g>
<g id="Group_12">
<path id="Vector_26" d="M45.1246 17.6912H44.5413V1.17682H27.8665V0.599121H45.1246V17.6912Z" fill="#1E5E7B"/>
<path id="Vector_27" d="M45.1246 17.6912H44.5413C44.5413 8.58286 37.0594 1.17682 27.8665 1.17682V0.599121C37.3822 0.599121 45.1246 8.26706 45.1246 17.6912Z" fill="#1E5E7B"/>
</g>
<g id="Group_13">
<path id="Vector_28" d="M45.1246 28.4863H34.2284V27.9087H44.5413V17.6912H45.1246V28.4863Z" fill="#1E5E7B"/>
<path id="Vector_29" d="M34.2284 28.4863V27.9087C39.9137 27.9087 44.5413 23.3256 44.5413 17.695H45.1246C45.1246 23.6453 40.2365 28.4863 34.2284 28.4863Z" fill="#1E5E7B"/>
</g>
<g id="Group_14">
<path id="Vector_30" d="M28.1581 28.4864H0V0.599121H28.1581V28.4864ZM0.583306 27.9087H27.5748V1.17682H0.583306V27.9087Z" fill="#1E5E7B"/>
<path id="Vector_31" d="M0.583306 28.1975H0C0 12.981 12.4983 0.599121 27.8665 0.599121V1.17682C12.8211 1.17682 0.583306 13.2969 0.583306 28.1975Z" fill="#1E5E7B"/>
</g>
<g id="Group_15">
<path id="Vector_32" d="M45.1246 72.5991H0V27.9087H45.1246V72.5991ZM0.583306 72.0215H44.5413V28.4864H0.583306V72.0215Z" fill="#1E5E7B"/>
<path id="Vector_33" d="M44.8329 72.5991C20.1124 72.5991 0 52.6802 0 28.1975H0.583306C0.583306 52.3605 20.4352 72.0214 44.8329 72.0214V72.5991Z" fill="#1E5E7B"/>
</g>
<path id="Vector_34" d="M161.79 19.4974C161.634 14.8913 157.812 11.2056 153.122 11.2056C148.432 11.2056 144.446 15.053 144.446 19.7978C144.446 24.5426 148.331 28.3939 153.122 28.3939C153.273 28.3939 153.421 28.3901 153.569 28.3824C153.853 28.3669 154.133 28.34 154.409 28.2976C154.51 28.2861 154.611 28.2668 154.712 28.2476C157.99 27.6159 159.068 25.1511 159.068 25.1511V26.0523H159.072V27.9934H161.794V19.6553C161.794 19.6052 161.794 19.5513 161.79 19.5013V19.4974ZM153.122 25.698C149.84 25.698 147.168 23.0522 147.168 19.7978C147.168 16.5435 149.84 13.9015 153.122 13.9015C156.404 13.9015 158.994 16.4664 159.072 19.6476C159.072 19.6977 159.072 19.7477 159.072 19.7978C159.072 19.8479 159.072 19.9018 159.072 19.9519C158.99 23.1369 156.353 25.698 153.122 25.698Z" fill="#1E5E7B"/>
<path id="Vector_35" d="M45.0118 19.4974C44.8563 14.8913 41.0337 11.2056 36.3439 11.2056C31.6541 11.2056 27.6682 15.053 27.6682 19.7978C27.6682 24.5426 31.553 28.3939 36.3439 28.3939C36.4955 28.3939 36.6433 28.3901 36.7911 28.3824C37.075 28.3669 37.3549 28.34 37.631 28.2976C37.7321 28.2861 37.8333 28.2668 37.9344 28.2476C41.2125 27.6159 42.2897 25.1511 42.2897 25.1511V26.0523H42.2936V27.9934H45.0157V19.6553C45.0157 19.6052 45.0157 19.5513 45.0118 19.5013V19.4974ZM36.3439 25.698C33.0618 25.698 30.3903 23.0522 30.3903 19.7978C30.3903 16.5435 33.0618 13.9015 36.3439 13.9015C39.6259 13.9015 42.2158 16.4664 42.2936 19.6476C42.2936 19.6977 42.2936 19.7477 42.2936 19.7978C42.2936 19.8479 42.2936 19.9018 42.2936 19.9519C42.2119 23.1369 39.5754 25.698 36.3439 25.698Z" fill="#1E5E7B"/>
</g>
</svg>
