<svg width="24" height="24" viewBox="0 0 24 24" fill="none" xmlns="http://www.w3.org/2000/svg">
<path d="M12 19C11.45 19 10.9792 18.8286 10.5875 18.4859C10.1958 18.1432 10 17.7313 10 17.25C10 16.7687 10.1958 16.3568 10.5875 16.0141C10.9792 15.6714 11.45 15.5 12 15.5C12.55 15.5 13.0208 15.6714 13.4125 16.0141C13.8042 16.3568 14 16.7687 14 17.25C14 17.7313 13.8042 18.1432 13.4125 18.4859C13.0208 18.8286 12.55 19 12 19ZM12 13.75C11.45 13.75 10.9792 13.5786 10.5875 13.2359C10.1958 12.8932 10 12.4813 10 12C10 11.5187 10.1958 11.1068 10.5875 10.7641C10.9792 10.4214 11.45 10.25 12 10.25C12.55 10.25 13.0208 10.4214 13.4125 10.7641C13.8042 11.1068 14 11.5187 14 12C14 12.4813 13.8042 12.8932 13.4125 13.2359C13.0208 13.5786 12.55 13.75 12 13.75ZM12 8.5C11.45 8.5 10.9792 8.32865 10.5875 7.98594C10.1958 7.64323 10 7.23125 10 6.75C10 6.26875 10.1958 5.85677 10.5875 5.51406C10.9792 5.17135 11.45 5 12 5C12.55 5 13.0208 5.17135 13.4125 5.51406C13.8042 5.85677 14 6.26875 14 6.75C14 7.23125 13.8042 7.64323 13.4125 7.98594C13.0208 8.32865 12.55 8.5 12 8.5Z" fill="#4F4262"/>
</svg>
